# xmcd
#
# Track frame offsets: 
#        150
#        18091
#        37369
#        58304
#        83934
#        101295
#        120847
#        140614
#        160065
#        174959
#        191713
#
# Disc length: 2964 seconds
#
# Revision: 0
# Processed by: cddbd v1.5.2PL0 Copyright (c) Steve Scherf et al.
# Submitted via: ExactAudioCopy v0.99pb3
#
DISCID=8b0b920b
DTITLE=Peter Karp - Road Show
DYEAR=2002
DGENRE=Blues
TTITLE0=Loose Ends
TTITLE1=From Where I Stand
TTITLE2=Alabama Town
TTITLE3=Geechee Geechee Wawa
TTITLE4=Y'All Be Lookin
TTITLE5=If I
TTITLE6=Lost Highway
TTITLE7=Kiss The Bride
TTITLE8=Over The Hills
TTITLE9=I'll Be Alright
TTITLE10=Round and aRound
EXTD=
EXTT0=
EXTT1=
EXTT2=
EXTT3=
EXTT4=
EXTT5=
EXTT6=
EXTT7=
EXTT8=
EXTT9=
EXTT10=
PLAYORDER=
